<?xml version="1.0" standalone="no"?>
<!DOCTYPE svg PUBLIC "-//W3C//DTD SVG 20010904//EN"
 "http://www.w3.org/TR/2001/REC-SVG-20010904/DTD/svg10.dtd">
<svg version="1.0" xmlns="http://www.w3.org/2000/svg"
 width="725.000000pt" height="725.000000pt" viewBox="0 0 725.000000 725.000000"
 preserveAspectRatio="xMidYMid meet">

<g transform="translate(0.000000,725.000000) scale(0.100000,-0.100000)"
fill="#000000" stroke="none">
<path d="M3623 6303 c-13 -2 -32 -18 -44 -34 -11 -16 -25 -27 -30 -23 -12 7
-28 -30 -181 -416 -141 -355 -150 -380 -137 -380 5 0 9 -22 9 -50 0 -40 -4
-51 -21 -60 -29 -16 -33 -7 -14 34 9 19 15 41 12 48 -6 17 -37 -54 -163 -368
-99 -249 -104 -266 -104 -335 0 -86 -5 -96 -44 -101 -26 -3 -33 -13 -77 -117
-33 -75 -49 -128 -49 -155 0 -39 -17 -102 -57 -213 -14 -42 -37 -56 -46 -30
-2 7 -10 0 -18 -16 -10 -21 -10 -35 -2 -57 6 -16 7 -33 2 -41 -5 -8 -19 -45
-31 -84 -20 -65 -31 -84 -50 -85 -5 0 -8 8 -8 18 -1 15 -2 15 -13 -3 -6 -11
-12 -45 -12 -75 -1 -37 -10 -74 -27 -112 -27 -58 -50 -78 -42 -35 9 39 -31
-41 -85 -174 -56 -138 -57 -145 -47 -239 l8 -65 -34 -13 c-54 -19 -76 -51
-134 -192 -59 -144 -63 -164 -38 -192 15 -16 16 -22 2 -64 -11 -36 -22 -49
-46 -60 -24 -10 -32 -10 -32 -1 -1 23 -39 -62 -158 -353 -127 -312 -146 -368
-136 -395 4 -11 -1 -22 -16 -32 -19 -14 -22 -22 -18 -64 4 -42 2 -51 -18 -64
-17 -11 -24 -11 -27 -2 -4 13 -47 -75 -66 -138 -32 -103 -31 -97 -13 -91 15 5
15 5 2 -6 -9 -7 -14 -20 -12 -30 2 -9 -2 -20 -9 -24 -9 -5 -10 -2 -6 9 3 10 2
17 -3 17 -6 0 -10 -7 -10 -15 0 -8 -4 -15 -9 -15 -4 0 -29 -50 -55 -111 -66
-160 -63 -176 22 -121 68 44 725 498 1212 836 190 132 381 265 425 295 149
101 320 224 348 249 15 14 27 34 27 43 0 21 32 33 63 23 12 -4 33 -7 47 -7 16
1 18 0 7 -3 -23 -7 -13 -21 29 -39 18 -7 208 -135 421 -283 349 -242 811 -560
919 -634 23 -15 69 -42 103 -58 40 -20 61 -37 61 -48 0 -10 15 -26 33 -36 17
-11 88 -58 157 -106 125 -87 279 -184 352 -221 l38 -19 0 24 c0 14 -16 65 -36
113 -20 48 -44 109 -54 135 -10 25 -31 77 -48 115 -17 37 -103 250 -192 473
-303 758 -800 1974 -1267 3100 -47 113 -141 342 -209 510 -291 722 -265 665
-299 666 -16 1 -40 0 -52 -3z"/>
<path d="M2125 6051 c-88 -22 -199 -123 -363 -331 -45 -58 -106 -134 -135
-169 -114 -140 -182 -230 -237 -313 -66 -99 -200 -349 -200 -372 0 -8 9 -20
20 -26 20 -11 20 -11 -1 -52 -25 -49 -90 -138 -101 -138 -10 0 -53 -142 -83
-276 -45 -200 -58 -323 -58 -564 -1 -333 33 -544 140 -874 44 -134 95 -248
197 -438 98 -181 285 -448 315 -448 5 0 30 51 56 112 26 62 99 232 163 378 63
146 121 285 128 309 26 84 19 133 -41 273 -96 225 -129 395 -129 668 0 148 4
211 23 315 49 277 180 583 328 766 87 108 123 177 132 258 4 31 3 198 0 371
-4 173 -8 370 -8 438 l-1 122 -57 -1 c-32 -1 -71 -4 -88 -8z m-69 -123 c12
-18 -131 -135 -155 -126 -11 3 25 45 87 101 45 40 57 44 68 25z"/>
<path d="M5000 5546 c0 -288 4 -515 9 -528 5 -13 22 -36 36 -53 15 -16 41 -46
57 -65 19 -22 26 -26 18 -12 -11 23 -10 23 27 20 l38 -3 3 -55 3 -54 -23 19
-22 20 15 -25 c9 -14 26 -29 37 -35 12 -5 22 -14 22 -20 0 -20 63 -140 67
-127 8 22 23 13 23 -14 0 -24 3 -26 30 -20 l30 6 0 -76 c0 -67 2 -76 20 -81
22 -6 24 -10 44 -122 19 -101 21 -155 5 -145 -9 5 -10 -4 -4 -32 22 -116 28
-178 35 -369 5 -145 13 -228 24 -267 17 -57 17 -58 -5 -88 -28 -37 -39 -38
-39 -3 0 41 -9 23 -36 -77 -14 -52 -48 -150 -76 -218 -75 -186 -76 -182 132
-692 66 -163 126 -294 146 -322 l35 -47 38 42 c90 100 225 300 309 457 133
251 246 589 287 860 31 211 29 658 -4 741 -5 13 -10 18 -10 10 -1 -8 -13 4
-27 25 -15 21 -30 41 -34 44 -4 3 -10 79 -14 169 -7 163 -8 166 -53 289 -132
359 -339 685 -608 960 -109 111 -135 132 -160 132 -40 0 -55 12 -59 44 -1 14
-14 38 -27 52 -36 39 -139 110 -200 139 -98 45 -89 94 -89 -479z"/>
<path d="M3073 2000 c-18 -11 -33 -28 -33 -38 0 -10 -5 -23 -12 -30 -14 -14
-68 -16 -68 -2 0 6 -7 10 -15 10 -15 0 -385 -250 -426 -289 -12 -11 -26 -21
-31 -21 -4 0 -8 -7 -8 -15 0 -8 5 -15 10 -15 6 0 10 -9 10 -20 0 -11 -7 -20
-16 -20 -11 0 -13 6 -9 19 9 29 -15 38 -36 13 -9 -12 -21 -22 -25 -22 -14 0
-94 -55 -94 -65 0 -6 17 -28 38 -48 42 -41 232 -132 387 -185 453 -156 1016
-183 1480 -72 264 64 613 197 705 270 l25 20 -32 29 c-17 16 -63 48 -102 70
-48 29 -71 48 -71 61 0 21 -195 150 -303 201 -39 18 -68 39 -78 56 -9 17 -42
41 -85 63 -87 44 -172 50 -284 21 -66 -17 -71 -19 -36 -20 50 -1 44 -6 -29
-26 -72 -19 -581 -29 -656 -14 -28 6 -58 21 -76 39 -26 26 -71 50 -91 50 -4 0
-22 -9 -39 -20z"/>
<path d="M3888 1963 c7 -3 16 -2 19 1 4 3 -2 6 -13 5 -11 0 -14 -3 -6 -6z"/>
<path d="M1707 1740 c-3 -11 -3 -20 -1 -20 2 0 8 9 14 20 6 11 7 20 2 20 -6 0
-12 -9 -15 -20z"/>
</g>
</svg>
